<svg width="100" height="44" viewBox="0 0 100 44" fill="none" xmlns="http://www.w3.org/2000/svg">
<path fill-rule="evenodd" clip-rule="evenodd" d="M72.8519 18.18C72.5221 18.4772 72.2567 18.8388 72.0723 19.2426C71.8761 19.6568 71.7809 20.1408 71.7809 20.6918C71.7809 21.9909 72.2686 23.0022 73.2442 23.7256C74.2197 24.4491 75.6925 24.8124 77.6624 24.8157C78.9404 24.8157 80.0518 24.6915 80.9968 24.4432C81.9418 24.1948 82.7231 23.8421 83.3407 23.3849C83.9316 22.9569 84.4027 22.3843 84.7087 21.7219C85.0163 21.0314 85.1695 20.2821 85.1575 19.5262C85.1625 18.9517 85.0756 18.38 84.9 17.8329C84.7421 17.3268 84.4634 16.8667 84.0879 16.4924C83.6782 16.1018 83.1878 15.8058 82.6514 15.6253C82.0594 15.4136 81.3411 15.3078 80.4952 15.3078H77.2891C77.0566 15.3086 76.8242 15.2978 76.5928 15.2753C76.3988 15.2571 76.2095 15.2052 76.0332 15.1222C75.8831 15.0503 75.7561 14.9379 75.6664 14.7977C75.5718 14.6287 75.5266 14.4365 75.5358 14.2431C75.5332 14.0449 75.5704 13.8481 75.6452 13.6646C75.7171 13.4928 75.8178 13.3346 75.9429 13.1968C76.0703 13.0534 76.2163 12.9277 76.3769 12.8228C76.5123 12.7344 76.6534 12.6514 76.8002 12.5738C76.8678 12.5385 76.9446 12.5248 77.0203 12.5343L77.1911 12.5547C77.3103 12.5674 77.4422 12.578 77.5784 12.5822L77.6124 12.5833C77.7379 12.5872 77.8665 12.5912 77.9933 12.5964C78.1179 12.6014 78.2323 12.6014 78.3337 12.6013L78.3665 12.6013C79.2238 12.6013 79.9695 12.4799 80.6095 12.2372C81.2074 12.0196 81.75 11.6727 82.1984 11.2212C82.6221 10.7832 82.9452 10.2581 83.1452 9.68245C83.3634 9.05913 83.4711 8.40253 83.4634 7.7422C83.4634 6.9327 83.3595 6.25914 83.1516 5.72151C82.9926 5.29598 82.7791 4.89282 82.5166 4.52208C82.4777 4.46676 82.4653 4.39703 82.4827 4.33167C82.5001 4.26631 82.5456 4.21203 82.6069 4.18342C82.7107 4.13307 82.8186 4.09153 82.9293 4.05925C83.1388 4.00131 83.3555 3.97329 83.5728 3.97599C83.7335 3.96908 83.8936 3.99951 84.0406 4.06489C84.153 4.1178 84.2501 4.1984 84.3228 4.29913C84.3902 4.39272 84.4397 4.49797 84.4689 4.60957C84.478 4.6512 84.4858 4.69212 84.4921 4.73375C84.5096 4.85308 84.6168 4.93831 84.737 4.92848C84.8888 4.91604 85.0379 4.88109 85.1794 4.82476C85.355 4.75418 85.5127 4.64522 85.6408 4.50586C85.7619 4.37029 85.8535 4.21098 85.9096 4.03808C85.9711 3.85244 86.0017 3.65792 85.9999 3.46235C86.002 3.27119 85.967 3.08144 85.8969 2.90356C85.8288 2.72734 85.7237 2.56781 85.5886 2.43578C85.4393 2.29516 85.2625 2.18704 85.0693 2.11829C84.8326 2.0351 84.5828 1.99519 84.332 2.00046C84.0328 1.99812 83.7356 2.04901 83.4543 2.15074C83.1905 2.24908 82.9387 2.37689 82.7036 2.53174C82.4799 2.6754 82.271 2.84083 82.0799 3.02562C81.9543 3.14627 81.8414 3.25986 81.7391 3.36569C81.6618 3.447 81.537 3.46043 81.4441 3.39744C81.3196 3.31233 81.1887 3.23685 81.0526 3.17167C80.8076 3.05358 80.5537 2.95474 80.2934 2.87604C79.9934 2.78236 79.6868 2.71161 79.3762 2.66438C79.0424 2.61541 78.7053 2.59183 78.3679 2.59383C77.4754 2.59383 76.6993 2.70954 76.0354 2.95083C75.4115 3.16617 74.8447 3.52059 74.378 3.98728C73.9266 4.45244 73.5862 5.01372 73.3825 5.62909C73.1619 6.27302 73.052 7.00537 73.053 7.82616C73.052 8.28703 73.1104 8.74611 73.2266 9.1921C73.3345 9.61988 73.5007 10.0308 73.7204 10.4134C73.9367 10.7829 74.2071 11.118 74.5227 11.4075C74.7281 11.5946 74.9541 11.7577 75.1965 11.8936C75.2761 11.9383 75.327 12.0209 75.331 12.1121C75.335 12.2034 75.2916 12.2902 75.2162 12.3417C74.7684 12.6493 74.4295 12.9637 74.1995 13.285C73.9018 13.6949 73.7578 14.181 73.7578 14.7419C73.7556 15.0247 73.8034 15.3055 73.8989 15.5716C73.9832 15.8096 74.1042 16.0329 74.2574 16.2334C74.3983 16.4212 74.5645 16.5886 74.7513 16.7309C74.8419 16.798 74.9361 16.8602 75.0335 16.9171C75.0766 16.9388 75.1012 16.9855 75.0947 17.0333C75.0881 17.0811 75.0519 17.1195 75.0045 17.1288C74.6513 17.2083 74.3061 17.3198 73.973 17.4618C73.5625 17.6382 73.1837 17.8808 72.8519 18.18ZM76.3014 4.90661C76.6936 4.28573 77.3435 3.97529 78.2565 3.97529C79.1694 3.97529 79.8291 4.27867 80.2179 4.88615C80.6067 5.49362 80.7986 6.432 80.7986 7.70128C80.8052 8.23613 80.76 8.77036 80.6638 9.29652C80.5984 9.68934 80.4513 10.0641 80.232 10.3965C80.0346 10.6769 79.7629 10.8968 79.4474 11.0315C79.1323 11.1688 78.7442 11.2377 78.2833 11.2382C77.3731 11.2382 76.7155 10.956 76.3169 10.3965C75.9182 9.83697 75.7143 8.9508 75.7143 7.74432C75.7143 6.47245 75.91 5.52655 76.3014 4.90661ZM75.0314 18.3303C74.7324 18.5365 74.4928 18.8175 74.3364 19.1452C74.1579 19.498 74.0711 19.9524 74.0718 20.5133C74.0698 20.9058 74.1262 21.2965 74.239 21.6725C74.3483 22.0263 74.5485 22.3453 74.8197 22.5975C75.0944 22.8567 75.4662 23.0594 75.9352 23.2057C76.4041 23.3519 76.998 23.4251 77.7167 23.4251C78.7299 23.4251 79.566 23.3425 80.2235 23.1725C80.8811 23.0025 81.4067 22.7647 81.7913 22.4613C82.1588 22.1836 82.4407 21.808 82.6048 21.3776C82.7645 20.9376 82.8441 20.4726 82.8397 20.0046C82.8397 19.5686 82.7755 19.2158 82.6514 18.9336C82.5367 18.6635 82.346 18.4326 82.1024 18.269C81.826 18.0966 81.5176 17.9817 81.1958 17.931C80.7846 17.8622 80.3681 17.83 79.9512 17.835H77.1791C76.792 17.8336 76.4056 17.8676 76.0248 17.9366C75.6704 17.9993 75.3324 18.1332 75.0314 18.3303ZM16.1956 4.39437C16.4147 4.53897 16.5886 4.74243 16.6973 4.98138C16.8238 5.23209 16.8868 5.56464 16.8863 5.97903V14.7708C16.8863 15.2106 16.8233 15.5634 16.6973 15.8292C16.5936 16.0759 16.4224 16.2884 16.2034 16.4423C15.986 16.5903 15.7377 16.6869 15.4774 16.7245C15.2488 16.7626 14.6342 16.7845 14.2384 16.7908C14.1748 16.791 14.1139 16.8166 14.0692 16.8619C14.0246 16.9072 13.9999 16.9685 14.0006 17.0321V17.7377C14.0006 17.8011 14.0258 17.8619 14.0707 17.9068C14.1155 17.9516 14.1764 17.9768 14.2398 17.9768H22.3819C22.514 17.9768 22.6211 17.8698 22.6211 17.7377V17.0321C22.6211 16.9 22.514 16.7929 22.3819 16.7929H21.8386C21.5409 16.7942 21.2436 16.7734 20.9489 16.7308C20.6891 16.6939 20.4388 16.6074 20.2116 16.4761C19.9939 16.3389 19.8214 16.1407 19.7156 15.9061C19.5886 15.657 19.5265 15.3233 19.5265 14.9098V10.479C19.5265 10.1206 19.5442 9.72265 19.5844 9.27957C19.622 8.83468 19.6835 8.39214 19.7685 7.95385C19.8564 7.51296 19.9716 7.07797 20.1136 6.65141C20.2407 6.25671 20.4166 5.8794 20.6371 5.52818C20.8249 5.22312 21.0692 4.95661 21.3567 4.74291C21.6304 4.54823 21.9586 4.445 22.2944 4.44799C22.8441 4.44799 23.2307 4.62014 23.4515 4.96163C23.6486 5.2716 23.757 5.7556 23.7768 6.41364C23.7818 6.54482 23.8918 6.64731 24.023 6.64295C24.3506 6.63663 24.676 6.58922 24.9918 6.50184C25.2878 6.42452 25.5639 6.28501 25.8017 6.09262C26.0076 5.92366 26.1671 5.70515 26.2653 5.45763C26.3652 5.19868 26.4147 4.92306 26.4113 4.64554C26.4113 3.99362 26.1616 3.48704 25.6613 3.13144C25.1611 2.77585 24.3963 2.59311 23.3683 2.59311C22.7417 2.59311 22.2253 2.67284 21.8118 2.8337C21.4244 2.97906 21.0711 3.20266 20.774 3.49056C20.4898 3.77878 20.2518 4.10909 20.0684 4.46986C19.9689 4.66036 19.7862 4.96939 19.6338 5.2248C19.6028 5.28229 19.5364 5.31102 19.4733 5.29423C19.4102 5.27744 19.3668 5.21953 19.3685 5.15424V4.06206C19.3662 3.40128 18.8298 2.86686 18.169 2.86686H14.2398C14.1077 2.86686 14.0006 2.97395 14.0006 3.10604C14.0012 3.62762 14.4116 4.05666 14.9327 4.0804C15.1591 4.09098 15.3645 4.10368 15.4618 4.11921C15.7231 4.15808 15.9732 4.25186 16.1956 4.39437ZM45.3662 10.4218C46.4302 9.69842 48.04 9.30426 50.1957 9.23935L52.3173 9.16456C52.4398 9.16037 52.5368 9.05987 52.5368 8.93737V7.4656C52.5402 6.99837 52.5124 6.53144 52.4535 6.06792C52.4123 5.67899 52.2905 5.30292 52.0958 4.96374C51.9091 4.65329 51.6346 4.40509 51.307 4.25043C50.9627 4.08251 50.4991 3.99714 49.9206 3.99714C49.3836 3.99714 48.9406 4.07334 48.6075 4.22291C48.2911 4.35834 48.0194 4.58042 47.8237 4.86355C47.6276 5.15729 47.4981 5.49031 47.4441 5.83932C47.3912 6.16493 47.3605 6.49377 47.3524 6.82356C47.3498 6.88907 47.3213 6.95087 47.2731 6.99534C47.2249 7.03981 47.161 7.06329 47.0955 7.06062C46.4372 7.03381 45.9285 6.90187 45.5652 6.66481C45.1567 6.40093 44.9542 5.94162 44.9542 5.28829C44.9542 4.80146 45.0847 4.39154 45.3521 4.05146C45.6455 3.6902 46.0216 3.40488 46.4485 3.21962C46.9636 2.98829 47.5076 2.82762 48.0657 2.74197C48.7161 2.63997 49.3737 2.59042 50.032 2.59381C50.8935 2.59381 51.6492 2.67777 52.2898 2.8471C52.9305 3.01643 53.4695 3.293 53.9006 3.68035C54.3475 4.09021 54.681 4.60861 54.8686 5.18528C55.0864 5.80475 55.1953 6.56486 55.1953 7.4656V14.7708C55.1899 15.0996 55.2221 15.428 55.2913 15.7494C55.3428 15.9772 55.4472 16.1897 55.5961 16.3696C55.7406 16.5299 55.929 16.6442 56.1379 16.6984C56.3619 16.7441 56.589 16.7724 56.8174 16.783C56.9364 16.7908 57.0289 16.8896 57.029 17.0088V17.7511C57.029 17.8761 56.9276 17.9775 56.8026 17.9775H53.8463C53.1975 17.9775 52.6715 17.4516 52.6715 16.8028V15.5617C52.6715 15.5617 51.966 16.3124 51.6838 16.6433C51.4183 16.9648 51.1134 17.2516 50.7764 17.4971C50.4344 17.7411 50.0557 17.929 49.6546 18.0537C49.2388 18.1873 48.7359 18.2541 48.1461 18.2541C47.5556 18.2589 46.9683 18.1678 46.4069 17.9846C45.8883 17.8158 45.4136 17.5341 45.017 17.1598C44.6109 16.7653 44.2976 16.2855 44.0997 15.7551C43.8803 15.1927 43.7681 14.5239 43.7681 13.7534C43.7695 12.2558 44.3022 11.1453 45.3662 10.4218ZM52.2749 14.2184C52.4549 13.6966 52.5432 13.1476 52.5359 12.5957L52.531 10.5686C52.5311 10.5019 52.5038 10.438 52.4556 10.3919C52.4073 10.3458 52.3423 10.3214 52.2756 10.3245L50.7297 10.3951C49.9296 10.431 49.2615 10.5277 48.7259 10.69C48.1904 10.8523 47.7565 11.0745 47.4277 11.3645C47.0988 11.6491 46.8534 12.0179 46.7179 12.4313C46.568 12.9028 46.4965 13.3957 46.5063 13.8903C46.5063 14.7723 46.6961 15.4298 47.0644 15.8659C47.4327 16.3019 48.0126 16.5192 48.7887 16.5192C49.3175 16.5268 49.8429 16.4334 50.3367 16.244C50.786 16.0719 51.192 15.8033 51.5263 15.4574C51.8612 15.1024 52.1165 14.68 52.2749 14.2184ZM28.0518 4.10861C27.5434 4.04697 27.1609 3.61597 27.16 3.10392C27.16 2.97299 27.2661 2.86685 27.397 2.86685H31.9711C32.0353 2.86685 32.0969 2.89235 32.1423 2.93773C32.1876 2.98312 32.2131 3.04467 32.2131 3.10885V12.5985C32.2053 13.1486 32.2526 13.6981 32.3542 14.2388C32.4339 14.6697 32.5971 15.0808 32.8347 15.4489C33.0606 15.7798 33.3757 16.0399 33.7435 16.1989C34.1266 16.3668 34.6036 16.4536 35.168 16.4536C35.7931 16.4536 36.3258 16.3421 36.771 16.1227C37.2087 15.9074 37.5872 15.5887 37.8738 15.1942C38.181 14.7606 38.3992 14.2704 38.5159 13.752C38.6594 13.1436 38.7288 12.5201 38.7226 11.895V6.08767C38.7226 5.64741 38.6612 5.29181 38.5349 5.02018C38.4287 4.77338 38.2581 4.55967 38.041 4.40141C37.8211 4.25468 37.5715 4.15831 37.3101 4.1192C37.284 4.11426 37.2494 4.11002 37.2134 4.10579C36.7073 4.04606 36.3259 3.61708 36.3258 3.10744C36.3258 2.97457 36.4335 2.86685 36.5664 2.86685H41.1194C41.2522 2.86685 41.36 2.97457 41.36 3.10744V14.9098C41.36 15.3233 41.4227 15.6542 41.549 15.9061C41.6552 16.1429 41.8299 16.3425 42.0507 16.479C42.2759 16.6132 42.5264 16.6995 42.7866 16.7322C42.9665 16.7598 43.3122 16.7781 43.538 16.7873C43.6592 16.7926 43.7547 16.8924 43.7546 17.0138V17.7511C43.7546 17.8761 43.6532 17.9775 43.5281 17.9775H40.8611C39.7845 17.9775 38.9117 17.1047 38.9117 16.0281C38.911 15.9796 38.88 15.9367 38.8342 15.9209C38.7883 15.9051 38.7375 15.9198 38.7071 15.9576C38.4651 16.2673 38.0615 16.7661 37.8301 16.9862C37.2023 17.6054 36.3961 18.0121 35.525 18.149C35.0888 18.2196 34.6475 18.2548 34.2056 18.2541C33.5312 18.2653 32.8601 18.1576 32.223 17.9359C31.6597 17.7361 31.1566 17.3962 30.7611 16.9481C30.3665 16.4957 30.0666 15.9216 29.8615 15.2259C29.6564 14.5302 29.5539 13.7003 29.5539 12.736V5.97761C29.5544 5.56416 29.4913 5.23208 29.3648 4.98137C29.2553 4.74313 29.0816 4.5401 28.8632 4.39507C28.6404 4.25324 28.3905 4.15952 28.1294 4.1199L28.0518 4.10861ZM68.907 3.90611C69.3155 4.3506 69.6267 4.9228 69.8447 5.62059C70.0568 6.31673 70.1636 7.14692 70.165 8.11117V14.7743C70.165 15.2146 70.2193 15.5674 70.3252 15.8327C70.4114 16.0749 70.5654 16.2873 70.769 16.4444C70.9736 16.5919 71.2103 16.6886 71.4597 16.7266C71.6297 16.7555 71.9797 16.776 72.2076 16.7866C72.3285 16.7922 72.4236 16.892 72.4235 17.013V17.7532C72.4235 17.8782 72.3221 17.9796 72.197 17.9796H67.7372C67.6121 17.9796 67.5107 17.8782 67.5107 17.7532V8.24945C67.5163 7.69887 67.4604 7.14938 67.3442 6.61117C67.2543 6.17567 67.0748 5.76362 66.8172 5.40116C66.5701 5.06952 66.2391 4.80967 65.8583 4.64834C65.4646 4.47948 64.9832 4.39505 64.414 4.39505C63.7713 4.39505 63.2308 4.51993 62.7983 4.76758C62.3668 5.00869 62.0029 5.35442 61.74 5.77299C61.4636 6.22043 61.2706 6.71431 61.1706 7.23064C61.0533 7.80073 60.9953 8.38144 60.9977 8.96347V14.9098C60.9977 15.3233 61.0584 15.657 61.1819 15.906C61.29 16.1417 61.4649 16.3404 61.6849 16.4775C61.9107 16.6122 62.1616 16.6993 62.4223 16.7336C62.6008 16.7598 62.9486 16.7774 63.1758 16.7873C63.297 16.7926 63.3925 16.8924 63.3924 17.0137V17.7334C63.3924 17.8686 63.2828 17.9782 63.1476 17.9782H58.5918C58.4597 17.9782 58.3526 17.8711 58.3526 17.7391V5.97689C58.3531 5.56438 58.2917 5.2316 58.1685 4.97854C58.0575 4.74298 57.8849 4.54184 57.6689 4.39646C57.4459 4.25482 57.1962 4.16067 56.9352 4.11989L56.8582 4.10931C56.3483 4.0506 55.9631 3.61933 55.9622 3.10602C55.9622 2.9747 56.0686 2.86825 56.2 2.86825H59.6219C60.3233 2.86825 60.8919 3.43684 60.8919 4.13823V4.71537C60.8918 4.7795 60.9323 4.83666 60.9928 4.85793C61.0533 4.87921 61.1206 4.85996 61.1607 4.80991C61.4055 4.49877 61.7576 4.06839 61.9559 3.86378C62.2557 3.5484 62.6048 3.28389 62.9895 3.08062C63.3513 2.89158 63.741 2.76153 64.1438 2.69539C64.5691 2.6248 64.9996 2.59057 65.4307 2.59309C66.1082 2.58276 66.7821 2.69265 67.4211 2.91764C67.9882 3.12382 68.4977 3.46276 68.907 3.90611ZM27.0831 35.0447C26.9231 34.5409 26.6437 34.0832 26.2688 33.7105C25.8614 33.3149 25.3709 33.015 24.833 32.8328C24.2432 32.623 23.5273 32.5174 22.6853 32.516H19.4906C19.2587 32.5166 19.027 32.5055 18.7963 32.4829C18.6029 32.4651 18.414 32.4138 18.2382 32.3312C18.0892 32.2585 17.9628 32.1465 17.8727 32.0073C17.7782 31.8395 17.7323 31.6487 17.7401 31.4563C17.7384 31.2586 17.7756 31.0625 17.8495 30.8791C17.9224 30.7087 18.0225 30.5512 18.1458 30.4128C18.2738 30.2701 18.4199 30.1449 18.5804 30.0403C18.7494 29.9299 18.9244 29.8291 19.1046 29.7383C19.144 29.7438 19.1924 29.7493 19.2484 29.7557C19.2926 29.7607 19.3416 29.7663 19.3946 29.7729C19.5146 29.7877 19.6402 29.7968 19.7777 29.8004C19.9153 29.8039 20.0515 29.8088 20.1898 29.8152C20.3156 29.821 20.4315 29.8209 20.5322 29.8208H20.5322H20.5323H20.5323H20.5323L20.5616 29.8208C21.4158 29.8208 22.1611 29.6995 22.7975 29.4568C23.3937 29.2405 23.9344 28.8947 24.3808 28.4443C24.8022 28.0074 25.1234 27.484 25.322 26.9104C25.5406 26.2887 25.649 25.6335 25.6423 24.9744C25.6423 24.168 25.5485 23.4928 25.3312 22.9594C25.1016 22.3585 24.7648 21.8043 24.337 21.3239C24.2622 21.2393 24.191 21.1631 24.1254 21.0939C24.0507 21.0183 24.0387 20.9009 24.0964 20.8117C24.1692 20.6974 24.2531 20.5906 24.3469 20.4928C24.5008 20.3377 24.6758 20.2051 24.8669 20.0991C25.0025 20.0136 25.1557 19.9601 25.3149 19.9425C25.4382 19.9334 25.5619 19.9542 25.6755 20.0031C25.7807 20.0508 25.8764 20.1173 25.9577 20.1993C25.9859 20.2294 26.0127 20.2602 26.0381 20.2917C26.1108 20.3891 26.247 20.4124 26.3479 20.3446C26.4733 20.258 26.585 20.1531 26.6795 20.0335C26.7961 19.8849 26.8778 19.712 26.9187 19.5276C26.9569 19.3502 26.9569 19.1667 26.9187 18.9893C26.8785 18.7984 26.807 18.6156 26.707 18.4481C26.6127 18.2828 26.4885 18.1364 26.3408 18.0163C26.1934 17.8981 26.0219 17.8134 25.8385 17.768C25.6395 17.7208 25.4328 17.7156 25.2317 17.7525C24.986 17.7982 24.7506 17.8878 24.5367 18.017C24.2776 18.1635 24.0464 18.3546 23.8537 18.5815C23.675 18.7988 23.5212 19.0355 23.3951 19.287C23.2745 19.5229 23.178 19.7704 23.1073 20.0257L23.0917 20.0808C23.0749 20.1414 23.0334 20.1923 22.9774 20.2208C22.9213 20.2494 22.8558 20.2531 22.7968 20.231C22.6971 20.1939 22.5934 20.1584 22.4857 20.1245C22.1856 20.0325 21.8789 19.9631 21.5684 19.9171C21.2354 19.8675 20.899 19.8432 20.5623 19.8444C19.6726 19.8444 18.8951 19.9608 18.234 20.2007C17.612 20.415 17.047 20.768 16.5816 21.2329C16.1331 21.6974 15.7955 22.2572 15.5938 22.8705C15.3727 23.5125 15.2627 24.2416 15.2636 25.0577C15.2633 25.5174 15.3221 25.9753 15.4386 26.4201C15.5455 26.8467 15.7117 27.2561 15.9325 27.6365C16.1452 28.0046 16.4134 28.3378 16.7276 28.6242C17.045 28.916 17.4117 29.1489 17.8107 29.3121C17.1665 29.6966 16.7001 30.0953 16.408 30.5024C15.9553 31.1722 15.8425 32.0154 16.1032 32.7806C16.1879 33.0176 16.3083 33.2403 16.4602 33.441C16.601 33.6278 16.7672 33.7941 16.9541 33.9349C17.1286 34.0669 17.3181 34.178 17.5186 34.2658C17.0611 34.3481 16.6146 34.4828 16.1879 34.6672C15.7774 34.8432 15.3984 35.0851 15.066 35.3834C14.7387 35.6802 14.4747 36.0402 14.2899 36.4417C14.0896 36.8966 13.9909 37.3897 14.0007 37.8866C14.0007 39.1811 14.4863 40.19 15.4576 40.9134C16.4289 41.6368 17.8977 41.999 19.8638 42C21.1338 42 22.2472 41.8758 23.1863 41.6296C24.1254 41.3833 24.9043 41.0305 25.5203 40.5762C26.1117 40.151 26.5828 39.5797 26.8876 38.9181C27.1946 38.2304 27.3477 37.484 27.3364 36.7309C27.342 36.159 27.2565 35.5897 27.0831 35.0447ZM18.5063 22.148C18.8972 21.5293 19.5449 21.221 20.4572 21.221C21.3695 21.221 22.0228 21.5222 22.4095 22.1283C22.7961 22.7343 22.988 23.6692 22.988 24.9357C22.995 25.4684 22.9515 26.0007 22.8582 26.5252C22.7897 26.9159 22.6417 27.2883 22.4236 27.6196C22.2289 27.8992 21.9601 28.1191 21.6475 28.2545C21.3295 28.3905 20.9412 28.4584 20.4826 28.4584C19.5738 28.4584 18.9198 28.1788 18.5204 27.6196C18.1232 27.0551 17.9207 26.1781 17.9207 24.9752C17.9212 23.7094 18.1164 22.767 18.5063 22.148ZM23.98 39.6498C24.3446 39.3707 24.6247 38.9961 24.7893 38.5675C24.9483 38.1289 25.0274 37.6653 25.0228 37.1988C25.0228 36.767 24.9615 36.4142 24.8352 36.132C24.7207 35.8623 24.5296 35.6322 24.2855 35.4702C24.0111 35.2981 23.7046 35.1836 23.3845 35.1336C22.9767 35.0644 22.5635 35.0313 22.1498 35.0348H19.3805C18.9946 35.0335 18.6094 35.0675 18.2298 35.1364C17.8772 35.1981 17.541 35.3313 17.242 35.528C16.9427 35.7337 16.7028 36.0145 16.5463 36.3422C16.3734 36.6894 16.2867 37.1451 16.2867 37.7039C16.2837 38.095 16.3382 38.4844 16.4482 38.8596C16.5568 39.2124 16.7563 39.5305 17.0268 39.7818C17.3027 40.0351 17.6695 40.2397 18.1409 40.3878C18.6122 40.536 19.202 40.6065 19.9167 40.6065C20.9264 40.6065 21.7582 40.5233 22.4172 40.3554C23.071 40.187 23.592 39.9518 23.98 39.6498ZM28.0518 21.3592C27.5434 21.2976 27.1609 20.8666 27.16 20.3545C27.16 20.2236 27.2661 20.1174 27.397 20.1174H31.9732C32.1069 20.1174 32.2153 20.2258 32.2153 20.3594V29.8476C32.2075 30.3978 32.2547 30.9473 32.3564 31.488C32.436 31.9189 32.5992 32.3299 32.8368 32.698C33.0627 33.029 33.3778 33.2891 33.7456 33.448C34.1287 33.616 34.6057 33.7027 35.1701 33.7027C35.7952 33.7027 36.3279 33.5913 36.7731 33.3718C37.2108 33.1566 37.5893 32.8379 37.8759 32.4433C38.1821 32.0102 38.3996 31.5208 38.5159 31.0033C38.6594 30.3949 38.7288 29.7714 38.7226 29.1463V23.339C38.7226 22.8987 38.6612 22.5431 38.5349 22.2715C38.4287 22.0247 38.2581 21.811 38.041 21.6527C37.8211 21.506 37.5715 21.4096 37.3101 21.3705C37.284 21.3656 37.2494 21.3613 37.2134 21.3571C36.707 21.2973 36.3255 20.8679 36.3258 20.358C36.3258 20.2942 36.3512 20.233 36.3963 20.1879C36.4414 20.1428 36.5026 20.1174 36.5664 20.1174H41.1194C41.1832 20.1174 41.2444 20.1428 41.2895 20.1879C41.3346 20.233 41.36 20.2942 41.36 20.358V32.1604C41.36 32.5739 41.4227 32.9048 41.549 33.1566C41.6552 33.3935 41.8299 33.5931 42.0507 33.7296C42.2759 33.8638 42.5264 33.9501 42.7866 33.9828C42.9665 34.0104 43.3122 34.0287 43.538 34.0379C43.6592 34.0432 43.7547 34.143 43.7546 34.2644V35.0052C43.7546 35.1303 43.6532 35.2317 43.5281 35.2317H40.8618C40.3441 35.2318 39.8475 35.0261 39.4817 34.6597C39.1158 34.2933 38.9107 33.7965 38.9117 33.2787C38.911 33.2302 38.88 33.1873 38.8342 33.1715C38.7883 33.1557 38.7375 33.1704 38.7071 33.2081C38.4651 33.5179 38.0615 34.0167 37.8301 34.2368C37.2023 34.856 36.3961 35.2627 35.525 35.3996C35.0888 35.4702 34.6475 35.5054 34.2056 35.5047C33.5312 35.5159 32.8601 35.4082 32.223 35.1865C31.6597 34.9867 31.1566 34.6468 30.7611 34.1987C30.3665 33.7462 30.0666 33.1722 29.8615 32.4765C29.6564 31.7808 29.5539 30.9509 29.5539 29.9866V23.2282C29.5544 22.8147 29.4913 22.4827 29.3648 22.232C29.2553 21.9937 29.0816 21.7907 28.8632 21.6457C28.6404 21.5038 28.3905 21.4101 28.1294 21.3705L28.0518 21.3592ZM54.4085 20.3792C53.9071 20.0208 53.143 19.8423 52.1162 19.8437C51.4897 19.8437 50.9732 19.9234 50.5597 20.0843C50.1726 20.2295 49.8196 20.4529 49.5226 20.7405C49.2366 21.0285 48.997 21.3591 48.8121 21.7205C48.7126 21.911 48.5299 22.22 48.3775 22.4754C48.3465 22.5329 48.2801 22.5616 48.217 22.5448C48.1538 22.528 48.1105 22.4701 48.1122 22.4048V21.3127C48.1102 20.653 47.5759 20.1187 46.9162 20.1168H42.9877C42.8566 20.1164 42.7497 20.222 42.7485 20.3531C42.7465 20.8766 43.1576 21.3086 43.6806 21.3324C43.9071 21.343 44.1124 21.3557 44.2097 21.3712C44.471 21.4101 44.7211 21.5039 44.9435 21.6464C45.1626 21.791 45.3365 21.9944 45.4452 22.2334C45.5717 22.4841 45.6347 22.8166 45.6343 23.231V35.0024C45.6343 35.1275 45.7357 35.2289 45.8607 35.2289H51.1319C51.264 35.2289 51.3711 35.1218 51.3711 34.9897V34.2841C51.3711 34.152 51.264 34.0449 51.1319 34.0449H50.5887C50.291 34.0462 49.9936 34.0254 49.699 33.9829C49.4392 33.9459 49.1889 33.8595 48.9617 33.7282C48.7425 33.5906 48.5689 33.3913 48.4628 33.1553C48.3358 32.9062 48.2737 32.5725 48.2737 32.159V27.7282C48.2737 27.3698 48.2914 26.9718 48.3316 26.5288C48.3692 26.0839 48.4307 25.6413 48.5157 25.203C48.6036 24.7622 48.7188 24.3272 48.8608 23.9006C48.9885 23.5073 49.1646 23.1315 49.385 22.7816C49.5729 22.4765 49.8171 22.21 50.1046 21.9963C50.3782 21.8014 50.7064 21.6979 51.0423 21.7007C51.592 21.7007 51.9786 21.8729 52.1994 22.2143C52.3961 22.5238 52.5045 23.0076 52.5247 23.6657C52.5301 23.7971 52.6402 23.8996 52.7716 23.8957C53.099 23.8893 53.4242 23.8419 53.7397 23.7546C54.0357 23.6763 54.3115 23.5358 54.5489 23.3425C54.7553 23.1719 54.9146 22.9514 55.0118 22.7019C55.1113 22.4452 55.1613 22.1721 55.1592 21.8969C55.1592 21.2421 54.9088 20.7355 54.4085 20.3792ZM71.5344 33.9843C71.6762 34.0061 71.9196 34.0217 72.1271 34.0322L84.9583 34.0308C85.0686 34.0308 85.158 34.1202 85.158 34.2305V35.032C85.158 35.1423 85.0686 35.2317 84.9583 35.2317H69.6096C69.0918 35.2318 68.5951 35.026 68.2292 34.6594C67.8634 34.2929 67.6584 33.7959 67.6595 33.278C67.6589 33.2295 67.6278 33.1866 67.582 33.1708C67.5361 33.155 67.4853 33.1697 67.4549 33.2074C67.2129 33.5172 66.8093 34.016 66.5779 34.2361C65.9501 34.8554 65.1439 35.262 64.2728 35.3989C63.8366 35.4695 63.3954 35.5047 62.9534 35.504C62.279 35.5152 61.6079 35.4075 60.9708 35.1858C60.4076 34.986 59.9044 34.6461 59.5089 34.198C59.1148 33.7465 58.8151 33.1729 58.61 32.4772C58.405 31.7815 58.3024 30.9516 58.3024 29.9873V23.2289C58.3029 22.8155 58.2399 22.4834 58.1133 22.2327C58.0039 21.9942 57.8302 21.7909 57.6117 21.6457C57.3889 21.5038 57.139 21.4101 56.8779 21.3705L56.8003 21.3592C56.292 21.2976 55.9094 20.8666 55.9085 20.3545C55.9085 20.2236 56.0146 20.1174 56.1455 20.1174H60.7211C60.8547 20.1174 60.9631 20.2258 60.9631 20.3594V29.8476C60.9553 30.3978 61.0026 30.9473 61.1042 31.488C61.1838 31.9189 61.347 32.33 61.5847 32.698C61.8105 33.029 62.1256 33.2891 62.4934 33.448C62.8765 33.616 63.3535 33.7027 63.9179 33.7027C64.5431 33.7027 65.0751 33.5913 65.521 33.3718C65.9586 33.1566 66.3371 32.8379 66.6237 32.4433C66.9299 32.0102 67.1474 31.5208 67.2637 31.0033C67.4072 30.3949 67.4766 29.7714 67.4704 29.1463V23.339C67.4704 22.8987 67.409 22.5431 67.2827 22.2715C67.1765 22.0247 67.006 21.811 66.7888 21.6527C66.5689 21.506 66.3193 21.4096 66.0579 21.3705C66.0318 21.3656 65.9972 21.3613 65.9612 21.3571C65.4532 21.2972 65.0712 20.8653 65.0736 20.3538C65.0756 20.2224 65.1828 20.117 65.3142 20.1174H69.8665C69.9303 20.1174 69.9915 20.1428 70.0366 20.1879C70.0817 20.233 70.1071 20.2942 70.1071 20.358V32.1604C70.1071 32.5739 70.1699 32.9048 70.2962 33.1566C70.4023 33.3935 70.5771 33.5931 70.7978 33.7296C71.0231 33.8644 71.2739 33.9511 71.5344 33.9843Z" fill="white"/>
</svg>
